# xmcd
# 
# Track frame offsets:
#     150
#     10444
#     23387
#     36666
#     48492
#     60433
#     72554
#     85136
#     96378
#     109091
#     122920
#     136850
#     150292
#     161653
#     171696
#     184532
#     194632
#     206867
#     219774
#     231570
#     243121
#     253374
#     266377
#     278821
# 
# Disc length: 3855
# 
# Revision: 0
# Processed by: cddbd v1.5.2PL0 Copyright (c) Steve Scherf et al.
# Submitted via: fre:ac v1.0.17
# 
DISCID=620f0d18
DTITLE=John Lee Hooker - The Journey Disc 1
DYEAR=0
DGENRE=Blues
TTITLE0=Dimples [1956]
TTITLE1=Hobo Blues [1959]
TTITLE2=I'm So Excited [1957]
TTITLE3=I Love You Honey [1958]
TTITLE4=Boggie Chillun [1959]
TTITLE5=Little Wheel [1957]
TTITLE6=I'm in the Mood [1959]
TTITLE7=Maudie [1959]
TTITLE8=Crawlin' Kingsnake [1959]
TTITLE9=Every Night [1956]
TTITLE10=Time Is Marching [1955]
TTITLE11=Baby Lee [1956]
TTITLE12=No Shoes
TTITLE13=I Wanna Walk
TTITLE14=Canal Street Blues
TTITLE15=Run On
TTITLE16=I'm A Stranger
TTITLE17=Whiskey And Wimmen
TTITLE18=Solid Sender
TTITLE19=Sunny Land
TTITLE20=Goin' To California
TTITLE21=I Can't Believe
TTITLE22=I'll Know Tonight
TTITLE23=Dusty Road
EXTD=
EXTT0=
EXTT1=
EXTT2=
EXTT3=
EXTT4=
EXTT5=
EXTT6=
EXTT7=
EXTT8=
EXTT9=
EXTT10=
EXTT11=
EXTT12=
EXTT13=
EXTT14=
EXTT15=
EXTT16=
EXTT17=
EXTT18=
EXTT19=
EXTT20=
EXTT21=
EXTT22=
EXTT23=
PLAYORDER=
